<svg width="14" height="14" viewBox="0 0 14 14" fill="none" xmlns="http://www.w3.org/2000/svg">
<path d="M9.66471 2.3334L11.6647 4.3334M6.99805 9.00007L12.588 3.39007C12.8506 3.12751 12.9981 2.77139 12.9981 2.40007C12.9981 2.02875 12.8506 1.67264 12.588 1.41007C12.3255 1.14751 11.9694 1 11.598 1C11.2267 1 10.8706 1.14751 10.608 1.41007L4.99805 7.00007V9.00007H6.99805Z" stroke-width="1.33333" stroke-linecap="round" stroke-linejoin="round"/>
<path d="M4.99903 3.71338C3.83306 3.88423 2.77485 4.48975 2.03679 5.40842C1.29872 6.32708 0.935423 7.4909 1.0198 8.6663C1.10418 9.8417 1.62999 10.9417 2.49171 11.7455C3.35343 12.5493 4.48728 12.9975 5.6657 13C6.78779 12.9999 7.87228 12.5956 8.7206 11.8611C9.56892 11.1267 10.1243 10.1112 10.285 9.00071" stroke-width="1.33333" stroke-linecap="round" stroke-linejoin="round"/>
</svg>
